<svg version="1.1" xmlns="http://www.w3.org/2000/svg" width="568" height="568" xmlns:xlink="http://www.w3.org/1999/xlink">
  <path d="M332 64 C326.05645346 79.60180966 330.73364271 100.18271571 337 115 C341.17181335 124.22590418 346.20299068 132.4507525 353 140 C353.59039062 140.68320313 354.18078125 141.36640625 354.7890625 142.0703125 C364.04503376 152.11402599 376.126387 157.74104217 388.4609375 163.03515625 C399.61156833 167.82387308 409.95347859 172.746737 419 181 C419.6084375 181.51691406 420.216875 182.03382813 420.84375 182.56640625 C434.2264552 194.70208665 441.53210251 213.62710996 443.21484375 231.25 C443.71121133 242.36863378 439.91590514 253.28692105 432.6875 261.6875 C431.800625 262.450625 430.91375 263.21375 430 264 C429.43667969 264.49242187 428.87335938 264.98484375 428.29296875 265.4921875 C417.41501053 274.39837732 404.57036058 275.7077821 391 275 C362.3063396 271.3260358 335.80727896 247.59278408 315.54052734 228.43896484 C314.04093031 227.0382319 312.52115222 225.66495106 310.98828125 224.30078125 C306.36290321 220.18021936 301.99623963 216.06799492 298.0078125 211.328125 C294.74286777 207.5423136 291.30114695 203.92013675 287.88134766 200.27441406 C285.08242093 197.27989557 282.34069514 194.25302237 279.6640625 191.1484375 C269.07641904 178.99225426 257.45999162 166.96578714 244 158 C243.33709961 157.5575293 242.67419922 157.11505859 241.99121094 156.65917969 C216.02545005 139.58789784 188.16790886 130.54167347 157 130.625 C155.84846939 130.62581573 155.84846939 130.62581573 154.67367554 130.62664795 C124.4169986 130.72493114 96.48035756 139.37898298 73 159 C72.00484375 159.83144531 71.0096875 160.66289062 69.984375 161.51953125 C50.74608173 178.11818037 38.82716416 200.23529956 32.25 224.5625 C32.05116211 225.29315674 31.85232422 226.02381348 31.64746094 226.77661133 C28.28801481 239.91907574 27.62485117 252.95443218 27.6875 266.4375 C27.68965515 267.27348724 27.6918103 268.10947449 27.69403076 268.97079468 C27.95735715 332.79395734 53.90585045 388.04515355 98 433.1875 C103.04713519 438.17104923 108.42878012 442.61831085 114 447 C114.97453125 447.79148437 115.9490625 448.58296875 116.953125 449.3984375 C125.80457739 456.44846365 135.18519689 462.38086793 145 468 C145.804375 468.46051758 146.60875 468.92103516 147.4375 469.39550781 C200.56382691 499.3841425 262.65876375 506.78386397 321.5234375 490.80859375 C343.86157458 484.36577653 366.25621925 473.74169234 385 460 C385.95261719 459.31808594 386.90523438 458.63617188 387.88671875 457.93359375 C406.54636568 444.29863606 424.07695828 428.37407909 437.76464844 409.68408203 C439.00519748 407.99291458 440.27047188 406.32254115 441.5390625 404.65234375 C472.25804626 363.62656636 485.24264238 310.3451211 478.40161133 259.77514648 C475.81940129 242.34062017 470.9030658 226.15113743 464.83398438 209.65795898 C456.36874861 186.64117293 456.36874861 186.64117293 461.0390625 175.84375 C465.42562181 167.42726223 472.44717223 164.92393573 480.8203125 161.37890625 C493.52286224 155.98584049 504.06435566 149.7649288 514 140 C514.62648438 139.38640625 515.25296875 138.7728125 515.8984375 138.140625 C529.00495558 124.26313527 535.89211954 104.79990174 536.6875 86 C536.73455078 85.16210938 536.78160156 84.32421875 536.83007812 83.4609375 C537.41477913 73.98532027 537.41477913 73.98532027 535 65 C530.59449437 65.56584476 527.75823092 67.21089077 524.0625 69.625 C511.52496518 77.81079693 498.50960154 82.77207518 484.31079102 87.15673828 C463.02287779 93.77659575 446.85836349 103.89855127 436.0625 124.0625 C435.03325001 126.03730273 434.00938833 128.01497189 433 130 C430.71447703 127.11970643 429.02679578 124.2169425 427.375 120.9375 C416.63558508 101.14742337 399.4806014 92.26694297 378.81524658 85.36044312 C363.72897338 80.29130268 349.58617248 74.49461682 336.6640625 64.99609375 C334.894222 63.74319656 334.894222 63.74319656 332 64 Z" fill="#2B3035"/>
  <path d="M0 0 C2.9375 2.3125 2.9375 2.3125 5 5 C5.598125 5.7425 6.19625 6.485 6.8125 7.25 C8.99979368 12.31531167 8.65908632 17.09597285 6.875 22.25 C4.0252053 26.4296989 0.89407029 29.36864324 -4 31 C-10.53422335 31.77245664 -14.71121222 30.94066541 -20 27 C-24.02872191 22.4411831 -25.25040724 17.97847282 -25 12 C-23.37301226 6.25769032 -20.89451462 3.35898062 -16 0 C-10.5877936 -2.82910789 -5.58766753 -1.98091224 0 0 Z " transform="translate(119,216)" fill="white"/>
  <path d="M0 0 C26.06614862 -0.91163991 50.17579536 3.29194708 70.125 21.25 C84.66003792 34.83245391 92.88972638 50.88645682 100.54296875 68.98046875 C109.83793533 90.90701175 121.09921191 109.09921191 138 126 C138.33 120.06 138.66 114.12 139 108 C136.69 107.67 134.38 107.34 132 107 C128.83816992 104.58702441 127.74023491 102.82998746 127 99 C126.88991091 96.05773913 126.83245768 93.13849117 126.82299805 90.19580078 C126.81642685 89.30752594 126.80985565 88.4192511 126.80308533 87.50405884 C126.78339213 84.56780916 126.77170012 81.63161048 126.76171875 78.6953125 C126.75764322 77.69147396 126.7535677 76.68763542 126.74936867 75.65337753 C126.72852739 70.34265093 126.71421586 65.03195003 126.70483398 59.72119141 C126.69375862 54.2377687 126.65934003 48.75475055 126.61966228 43.27147102 C126.59351995 39.052391 126.58514438 34.83340789 126.58155251 30.614254 C126.57668236 28.59285619 126.56505622 26.57146283 126.54651451 24.5501442 C126.52216838 21.72076509 126.52307956 18.89244006 126.5300293 16.06298828 C126.51721924 15.23057617 126.50440918 14.39816406 126.49121094 13.54052734 C126.53862344 8.23809754 127.47053665 5.20387999 131 1 C134.85615369 -0.92807685 139.57049833 -0.27189373 143.8125 -0.3125 C145.31006836 -0.35600586 145.31006836 -0.35600586 146.83789062 -0.40039062 C154.23107012 -0.46442216 154.23107012 -0.46442216 158.13671875 1.89453125 C161.73727552 5.96308492 161.16137997 9.87654706 161.17700195 15.06787109 C161.18357315 16.00783432 161.19014435 16.94779755 161.19691467 17.91624451 C161.21667017 21.03530958 161.22831424 24.15432651 161.23828125 27.2734375 C161.24235678 28.33676929 161.2464323 29.40010109 161.25063133 30.49565506 C161.27149998 36.12177589 161.28579923 41.74787226 161.29516602 47.37402344 C161.30624238 53.19399105 161.34065434 59.01357758 161.38033772 64.83341026 C161.40644095 69.30118537 161.41485217 73.76886874 161.41844749 78.23671341 C161.42332842 80.38257043 161.43498492 82.52842296 161.45348549 84.67420578 C161.47774672 87.67422754 161.47693585 90.67325071 161.4699707 93.67333984 C161.48918579 95.00758751 161.48918579 95.00758751 161.50878906 96.36878967 C161.45794505 102.36406915 161.45794505 102.36406915 159.17375183 105.53604126 C156.47230645 107.35538628 154.2156571 107.70766754 151 108 C150.86986442 112.39428323 150.81390319 116.78180441 150.82299805 121.17749023 C150.81607316 122.66827303 150.7897979 124.15910826 150.74291992 125.64916992 C150.38771222 134.77239957 150.38771222 134.77239957 154.17285156 142.81274414 C156.99648637 145.1710021 159.85163257 147.10075576 163 149 C164.28596069 149.87507202 164.28596069 149.87507202 165.59790039 150.76782227 C168.06752524 152.43951955 170.58006407 154.00835569 173.125 155.5625 C173.93453125 156.07490234 174.7440625 156.58730469 175.578125 157.11523438 C183.82479316 162.20320166 192.06159642 165.79369244 201 170 C201 149.21 201 128.42 201 107 C198.69 106.67 196.38 106.34 194 106 C191.45544505 103.89789773 190.23872977 102.32586491 189.6469574 99.03926086 C189.47719379 96.61328529 189.45959218 94.22284613 189.48242188 91.79101562 C189.4754126 90.87172775 189.46840332 89.95243988 189.46118164 89.0052948 C189.4436022 85.97197098 189.45522441 82.93958302 189.46875 79.90625 C189.46605508 77.79544903 189.46217265 75.68464926 189.45715332 73.57385254 C189.45125833 69.15214202 189.45982146 64.73075493 189.47851562 60.30908203 C189.50130493 54.64278672 189.48818189 48.97724926 189.46422577 43.31098175 C189.44976797 38.95292455 189.45437376 34.59504687 189.46473694 30.23698425 C189.46740426 28.1478008 189.46413428 26.05860103 189.45481873 23.96943665 C189.44465367 21.04884706 189.460154 18.12948276 189.48242188 15.20898438 C189.47432495 14.34649582 189.46622803 13.48400726 189.45788574 12.59538269 C189.51522619 8.53355402 189.68458291 6.49826816 191.90734863 2.98693848 C196.26032175 -1.14613878 201.08750163 -0.29462351 206.8125 -0.375 C207.81087891 -0.41238281 208.80925781 -0.44976562 209.83789062 -0.48828125 C211.28905273 -0.50568359 211.28905273 -0.50568359 212.76953125 -0.5234375 C214.09368042 -0.5531665 214.09368042 -0.5531665 215.44458008 -0.58349609 C219.27475857 0.29107414 220.5965795 1.91226778 223 5 C223.7279025 8.16738472 223.67355065 11.2615389 223.63110352 14.50024414 C223.64183647 15.92547646 223.64183647 15.92547646 223.65278625 17.37950134 C223.6696733 20.51521105 223.65027152 23.64949126 223.62890625 26.78515625 C223.62973487 28.96561298 223.63219401 31.14606965 223.63621521 33.32652283 C223.63907314 37.89373603 223.62437075 42.46045881 223.59692383 47.02758789 C223.56282131 52.8845683 223.56886627 58.74067287 223.5875864 64.59769535 C223.59814908 69.09898695 223.58922548 73.60007436 223.57420158 78.10134697 C223.56901532 80.26112703 223.56950694 82.42092837 223.57574654 84.58070564 C223.58119055 87.59732138 223.56084979 90.61267807 223.53344727 93.62915039 C223.54323608 94.97035446 223.54323608 94.97035446 223.55322266 96.33865356 C223.49558067 100.0662218 223.42418543 102.32932181 221.40415955 105.5231781 C219 107 219 107 212 108 C212.33 130.11 212.66 152.22 213 175 C220.59 176.98 228.18 178.96 236 181 C238.31 181.66 240.62 182.32 243 183 C243 183.33 243 183.66 243 184 C192.47029045 192.91232672 134.29094684 179.3628248 91.9921875 150.3046875 C83.60851498 144.35206723 75.70501655 137.79995994 68 131 C67.47776855 130.54093262 66.95553711 130.08186523 66.41748047 129.60888672 C28.54144224 96.14058305 7.69098825 51.34597413 0 2 C0 1.34 0 0.68 0 0 Z " transform="translate(50,292)" fill="white"/>
  <path d="M0 0 C1.49853516 -0.00290039 1.49853516 -0.00290039 3.02734375 -0.00585938 C4.05988281 0.01798828 5.09242188 0.04183594 6.15625 0.06640625 C7.18878906 0.05544922 8.22132813 0.04449219 9.28515625 0.03320312 C13.89014935 0.07776757 16.81683908 0.12089642 20.8125 2.5390625 C24.3748544 6.57690064 23.81757462 10.44306921 23.83325195 15.58911133 C23.84310875 16.98201637 23.84310875 16.98201637 23.85316467 18.40306091 C23.87292159 21.48485387 23.88456529 24.56659806 23.89453125 27.6484375 C23.89860678 28.69948858 23.9026823 29.75053967 23.90688133 30.83344078 C23.92775178 36.39587585 23.94204957 41.95828618 23.95141602 47.52075195 C23.96248555 53.2711212 23.99688916 59.02110401 24.03658772 64.77133656 C24.0627109 69.18853992 24.07110401 73.6056506 24.07469749 78.02292442 C24.07957417 80.14283548 24.09121875 82.2627421 24.10973549 84.3825779 C24.13403634 87.34887086 24.1331784 90.31415593 24.1262207 93.28051758 C24.13903076 94.15707001 24.15184082 95.03362244 24.16503906 95.93673706 C24.12997104 100.03623776 23.98698071 102.10411753 21.75187683 105.65068054 C18.00102374 109.19140349 17.48502462 108.62890625 11.65625 108.62890625 C11.65625 131.06890625 11.65625 153.50890625 11.65625 176.62890625 C5.65625 179.62890625 5.65625 179.62890625 0.65625 180.62890625 C0.65625 156.86890625 0.65625 133.10890625 0.65625 108.62890625 C-1.65375 108.29890625 -3.96375 107.96890625 -6.34375 107.62890625 C-8.74790955 106.15208435 -8.74790955 106.15208435 -10.34375 103.62890625 C-10.92422684 100.5031763 -10.90034799 97.43002762 -10.87719727 94.25805664 C-10.89012062 92.8354528 -10.89012062 92.8354528 -10.90330505 91.3841095 C-10.92601408 88.24798314 -10.91921669 85.11274682 -10.91015625 81.9765625 C-10.91538984 79.79707065 -10.92166535 77.61758108 -10.92893982 75.43809509 C-10.93935333 70.86918484 -10.93476906 66.30058584 -10.92016602 61.73168945 C-10.90298203 55.8758141 -10.92646441 50.02092026 -10.96165562 44.16515446 C-10.98361414 39.66382847 -10.98219173 35.16273785 -10.9738903 30.66137505 C-10.97306985 28.50240439 -10.97995124 26.34341662 -10.99466133 24.18449593 C-11.01207699 21.16543356 -10.99758854 18.14814144 -10.97485352 15.12915039 C-10.98654572 14.23703857 -10.99823792 13.34492676 -11.01028442 12.42578125 C-10.94227562 7.98815947 -10.77698486 6.18559791 -7.96678162 2.57458496 C-5.01074965 0.38189752 -3.63634863 -0.00291167 0 0 Z " transform="translate(312.34375,291.37109375)" fill="white"/>
  <path d="M0 0 C0.99386719 -0.03287109 1.98773438 -0.06574219 3.01171875 -0.09960938 C10.35407643 -0.15366957 10.35407643 -0.15366957 14.2578125 2.83984375 C17.44673221 7.27631155 17.27909825 10.71162536 17.28613281 16.03051758 C17.29358017 17.3649012 17.29358017 17.3649012 17.30117798 18.72624207 C17.31581936 21.67817958 17.32260517 24.63006334 17.328125 27.58203125 C17.33387518 29.6298574 17.33963293 31.67768353 17.34539795 33.72550964 C17.35591381 38.0237961 17.36175253 42.32206381 17.36523438 46.62036133 C17.37071787 52.12852787 17.39474041 57.63644705 17.42320633 63.14453602 C17.44182971 67.37644677 17.44703817 71.60829793 17.44857025 75.8402462 C17.45159839 77.87082966 17.45963232 79.90141203 17.47275543 81.93195534 C17.48980822 84.77359446 17.48793741 87.61462931 17.48144531 90.45629883 C17.49526749 91.71502304 17.49526749 91.71502304 17.5093689 92.99917603 C17.47601209 97.65956827 17.09079605 100.62180833 14.125 104.4375 C11.78093103 106.70343334 10.7801488 107.41903141 7.4921875 107.51171875 C6.71101563 107.48722656 5.92984375 107.46273437 5.125 107.4375 C5.17213135 108.49138916 5.2192627 109.54527832 5.26782227 110.63110352 C5.43149149 114.56464051 5.53430549 118.4978817 5.61938477 122.43383789 C5.66447595 124.1325958 5.72577273 125.83100763 5.80395508 127.52856445 C6.43696536 141.63269539 6.43696536 141.63269539 3.15185547 146.15185547 C-2.23732363 150.4375 -2.23732363 150.4375 -5.875 150.4375 C-5.875 136.5775 -5.875 122.7175 -5.875 108.4375 C-7.855 108.1075 -9.835 107.7775 -11.875 107.4375 C-14.13226011 105.54628207 -15.56146424 104.06457151 -16.875 101.4375 C-16.98402599 98.57597057 -17.03233326 95.7384102 -17.03613281 92.8762207 C-17.04109772 91.98984421 -17.04606262 91.10346771 -17.05117798 90.19023132 C-17.06582241 87.24790681 -17.07260652 84.30563627 -17.078125 81.36328125 C-17.08387599 79.32024636 -17.08963372 77.27721149 -17.09539795 75.23417664 C-17.10591539 70.94428251 -17.11175273 66.65440716 -17.11523438 62.36450195 C-17.12071092 56.87446788 -17.14471792 51.38468285 -17.17320633 45.89472675 C-17.19185847 41.67131331 -17.19703976 37.44795943 -17.19857025 33.22450829 C-17.2015931 31.20115998 -17.2096092 29.17781263 -17.22275543 27.15450478 C-17.23986439 24.31806332 -17.23792343 21.48222449 -17.23144531 18.64575195 C-17.2406601 17.81379303 -17.24987488 16.98183411 -17.2593689 16.12466431 C-17.22161492 10.8312904 -16.4271059 7.11111468 -13.875 2.4375 C-9.42920106 -0.52636596 -5.23252419 0.03030419 0 0 Z " transform="translate(380.875,291.5625)" fill="white"/>
</svg>
